<mxfile host="app.diagrams.net" modified="2023-11-08T09:14:11.433Z" agent="Mozilla/5.0 (Windows NT 10.0; Win64; x64) AppleWebKit/537.36 (KHTML, like Gecko) Chrome/119.0.0.0 Safari/537.36" etag="Fh3D7QpdDDGsR9_EgZ_F" version="22.0.8" type="github">
  <diagram name="Página-1" id="jSrIvx9x5D1C4R9ENkYD">
    <mxGraphModel dx="1707" dy="478" grid="1" gridSize="10" guides="1" tooltips="1" connect="1" arrows="1" fold="1" page="1" pageScale="1" pageWidth="827" pageHeight="1169" math="0" shadow="0">
      <root>
        <mxCell id="0" />
        <mxCell id="1" parent="0" />
        <mxCell id="pjMZXI1afkHNwshsF0yk-6" style="edgeStyle=orthogonalEdgeStyle;rounded=0;orthogonalLoop=1;jettySize=auto;html=1;entryX=0.5;entryY=0;entryDx=0;entryDy=0;" edge="1" parent="1" source="pjMZXI1afkHNwshsF0yk-1" target="pjMZXI1afkHNwshsF0yk-5">
          <mxGeometry relative="1" as="geometry" />
        </mxCell>
        <mxCell id="pjMZXI1afkHNwshsF0yk-1" value="&lt;font style=&quot;vertical-align: inherit;&quot;&gt;&lt;font style=&quot;vertical-align: inherit;&quot;&gt;&lt;font style=&quot;vertical-align: inherit;&quot;&gt;&lt;font style=&quot;vertical-align: inherit;&quot;&gt;U&lt;/font&gt;&lt;/font&gt;&lt;br&gt;&lt;/font&gt;&lt;/font&gt;" style="ellipse;whiteSpace=wrap;html=1;aspect=fixed;" vertex="1" parent="1">
          <mxGeometry x="374" y="210" width="80" height="80" as="geometry" />
        </mxCell>
        <mxCell id="pjMZXI1afkHNwshsF0yk-7" style="edgeStyle=orthogonalEdgeStyle;rounded=0;orthogonalLoop=1;jettySize=auto;html=1;entryX=0;entryY=0.5;entryDx=0;entryDy=0;" edge="1" parent="1" source="pjMZXI1afkHNwshsF0yk-2" target="pjMZXI1afkHNwshsF0yk-1">
          <mxGeometry relative="1" as="geometry" />
        </mxCell>
        <mxCell id="pjMZXI1afkHNwshsF0yk-2" value="&lt;font style=&quot;vertical-align: inherit;&quot;&gt;&lt;font style=&quot;vertical-align: inherit;&quot;&gt;Pessoa&lt;/font&gt;&lt;/font&gt;" style="rounded=0;whiteSpace=wrap;html=1;" vertex="1" parent="1">
          <mxGeometry x="30" y="160" width="120" height="60" as="geometry" />
        </mxCell>
        <mxCell id="pjMZXI1afkHNwshsF0yk-9" style="edgeStyle=orthogonalEdgeStyle;rounded=0;orthogonalLoop=1;jettySize=auto;html=1;entryX=1;entryY=0.5;entryDx=0;entryDy=0;" edge="1" parent="1" source="pjMZXI1afkHNwshsF0yk-3" target="pjMZXI1afkHNwshsF0yk-1">
          <mxGeometry relative="1" as="geometry" />
        </mxCell>
        <mxCell id="pjMZXI1afkHNwshsF0yk-3" value="&lt;font style=&quot;vertical-align: inherit;&quot;&gt;&lt;font style=&quot;vertical-align: inherit;&quot;&gt;Company&lt;/font&gt;&lt;/font&gt;" style="rounded=0;whiteSpace=wrap;html=1;" vertex="1" parent="1">
          <mxGeometry x="680" y="160" width="120" height="60" as="geometry" />
        </mxCell>
        <mxCell id="pjMZXI1afkHNwshsF0yk-8" style="edgeStyle=orthogonalEdgeStyle;rounded=0;orthogonalLoop=1;jettySize=auto;html=1;entryX=0.5;entryY=0;entryDx=0;entryDy=0;" edge="1" parent="1" source="pjMZXI1afkHNwshsF0yk-4" target="pjMZXI1afkHNwshsF0yk-1">
          <mxGeometry relative="1" as="geometry" />
        </mxCell>
        <mxCell id="pjMZXI1afkHNwshsF0yk-4" value="&lt;font style=&quot;vertical-align: inherit;&quot;&gt;&lt;font style=&quot;vertical-align: inherit;&quot;&gt;Banco&lt;/font&gt;&lt;/font&gt;" style="rounded=0;whiteSpace=wrap;html=1;" vertex="1" parent="1">
          <mxGeometry x="354" y="50" width="120" height="60" as="geometry" />
        </mxCell>
        <mxCell id="pjMZXI1afkHNwshsF0yk-5" value="&lt;font style=&quot;vertical-align: inherit;&quot;&gt;&lt;font style=&quot;vertical-align: inherit;&quot;&gt;Owner&lt;/font&gt;&lt;/font&gt;" style="rounded=0;whiteSpace=wrap;html=1;" vertex="1" parent="1">
          <mxGeometry x="354" y="380" width="120" height="60" as="geometry" />
        </mxCell>
        <mxCell id="pjMZXI1afkHNwshsF0yk-22" style="edgeStyle=orthogonalEdgeStyle;rounded=0;orthogonalLoop=1;jettySize=auto;html=1;entryX=0.5;entryY=1;entryDx=0;entryDy=0;" edge="1" parent="1" source="pjMZXI1afkHNwshsF0yk-10" target="pjMZXI1afkHNwshsF0yk-3">
          <mxGeometry relative="1" as="geometry" />
        </mxCell>
        <mxCell id="pjMZXI1afkHNwshsF0yk-10" value="&lt;font style=&quot;vertical-align: inherit;&quot;&gt;&lt;font style=&quot;vertical-align: inherit;&quot;&gt;Cnome&lt;/font&gt;&lt;/font&gt;" style="ellipse;whiteSpace=wrap;html=1;align=center;fontStyle=4;" vertex="1" parent="1">
          <mxGeometry x="690" y="260" width="100" height="40" as="geometry" />
        </mxCell>
        <mxCell id="pjMZXI1afkHNwshsF0yk-11" value="&lt;font style=&quot;vertical-align: inherit;&quot;&gt;&lt;font style=&quot;vertical-align: inherit;&quot;&gt;CPF&lt;/font&gt;&lt;/font&gt;" style="ellipse;whiteSpace=wrap;html=1;align=center;fontStyle=4;" vertex="1" parent="1">
          <mxGeometry x="-30" y="50" width="100" height="40" as="geometry" />
        </mxCell>
        <mxCell id="pjMZXI1afkHNwshsF0yk-21" style="edgeStyle=orthogonalEdgeStyle;rounded=0;orthogonalLoop=1;jettySize=auto;html=1;entryX=1;entryY=0;entryDx=0;entryDy=0;" edge="1" parent="1" source="pjMZXI1afkHNwshsF0yk-12" target="pjMZXI1afkHNwshsF0yk-4">
          <mxGeometry relative="1" as="geometry" />
        </mxCell>
        <mxCell id="pjMZXI1afkHNwshsF0yk-12" value="&lt;font style=&quot;vertical-align: inherit;&quot;&gt;&lt;font style=&quot;vertical-align: inherit;&quot;&gt;Bnome&lt;/font&gt;&lt;/font&gt;" style="ellipse;whiteSpace=wrap;html=1;align=center;fontStyle=4;" vertex="1" parent="1">
          <mxGeometry x="520" y="20" width="100" height="40" as="geometry" />
        </mxCell>
        <mxCell id="pjMZXI1afkHNwshsF0yk-18" style="edgeStyle=orthogonalEdgeStyle;rounded=0;orthogonalLoop=1;jettySize=auto;html=1;entryX=0.75;entryY=0;entryDx=0;entryDy=0;" edge="1" parent="1" source="pjMZXI1afkHNwshsF0yk-13" target="pjMZXI1afkHNwshsF0yk-2">
          <mxGeometry relative="1" as="geometry" />
        </mxCell>
        <mxCell id="pjMZXI1afkHNwshsF0yk-13" value="&lt;font style=&quot;vertical-align: inherit;&quot;&gt;&lt;font style=&quot;vertical-align: inherit;&quot;&gt;Licença&lt;/font&gt;&lt;/font&gt;" style="ellipse;whiteSpace=wrap;html=1;align=center;fontStyle=4;" vertex="1" parent="1">
          <mxGeometry x="70" y="10" width="100" height="40" as="geometry" />
        </mxCell>
        <mxCell id="pjMZXI1afkHNwshsF0yk-16" style="edgeStyle=orthogonalEdgeStyle;rounded=0;orthogonalLoop=1;jettySize=auto;html=1;entryX=1;entryY=0;entryDx=0;entryDy=0;" edge="1" parent="1" source="pjMZXI1afkHNwshsF0yk-14" target="pjMZXI1afkHNwshsF0yk-2">
          <mxGeometry relative="1" as="geometry" />
        </mxCell>
        <mxCell id="pjMZXI1afkHNwshsF0yk-14" value="&lt;font style=&quot;vertical-align: inherit;&quot;&gt;&lt;font style=&quot;vertical-align: inherit;&quot;&gt;Endereço&lt;/font&gt;&lt;/font&gt;" style="ellipse;whiteSpace=wrap;html=1;align=center;" vertex="1" parent="1">
          <mxGeometry x="180" y="100" width="100" height="40" as="geometry" />
        </mxCell>
        <mxCell id="pjMZXI1afkHNwshsF0yk-15" value="&lt;font style=&quot;vertical-align: inherit;&quot;&gt;&lt;font style=&quot;vertical-align: inherit;&quot;&gt;Nome&lt;/font&gt;&lt;/font&gt;" style="ellipse;whiteSpace=wrap;html=1;align=center;" vertex="1" parent="1">
          <mxGeometry x="200" y="40" width="100" height="40" as="geometry" />
        </mxCell>
        <mxCell id="pjMZXI1afkHNwshsF0yk-17" style="edgeStyle=orthogonalEdgeStyle;rounded=0;orthogonalLoop=1;jettySize=auto;html=1;entryX=0.842;entryY=-0.017;entryDx=0;entryDy=0;entryPerimeter=0;" edge="1" parent="1" source="pjMZXI1afkHNwshsF0yk-15" target="pjMZXI1afkHNwshsF0yk-2">
          <mxGeometry relative="1" as="geometry" />
        </mxCell>
        <mxCell id="pjMZXI1afkHNwshsF0yk-19" style="edgeStyle=orthogonalEdgeStyle;rounded=0;orthogonalLoop=1;jettySize=auto;html=1;entryX=0.092;entryY=0;entryDx=0;entryDy=0;entryPerimeter=0;" edge="1" parent="1" source="pjMZXI1afkHNwshsF0yk-11" target="pjMZXI1afkHNwshsF0yk-2">
          <mxGeometry relative="1" as="geometry" />
        </mxCell>
        <mxCell id="pjMZXI1afkHNwshsF0yk-24" style="edgeStyle=orthogonalEdgeStyle;rounded=0;orthogonalLoop=1;jettySize=auto;html=1;entryX=1;entryY=0.75;entryDx=0;entryDy=0;" edge="1" parent="1" source="pjMZXI1afkHNwshsF0yk-23" target="pjMZXI1afkHNwshsF0yk-4">
          <mxGeometry relative="1" as="geometry" />
        </mxCell>
        <mxCell id="pjMZXI1afkHNwshsF0yk-23" value="&lt;font style=&quot;vertical-align: inherit;&quot;&gt;&lt;font style=&quot;vertical-align: inherit;&quot;&gt;Bendereço&lt;/font&gt;&lt;/font&gt;" style="ellipse;whiteSpace=wrap;html=1;align=center;" vertex="1" parent="1">
          <mxGeometry x="500" y="70" width="100" height="40" as="geometry" />
        </mxCell>
        <mxCell id="pjMZXI1afkHNwshsF0yk-26" style="edgeStyle=orthogonalEdgeStyle;rounded=0;orthogonalLoop=1;jettySize=auto;html=1;entryX=0.5;entryY=0;entryDx=0;entryDy=0;" edge="1" parent="1" source="pjMZXI1afkHNwshsF0yk-25" target="pjMZXI1afkHNwshsF0yk-3">
          <mxGeometry relative="1" as="geometry" />
        </mxCell>
        <mxCell id="pjMZXI1afkHNwshsF0yk-25" value="&lt;font style=&quot;vertical-align: inherit;&quot;&gt;&lt;font style=&quot;vertical-align: inherit;&quot;&gt;Cendereço&lt;/font&gt;&lt;/font&gt;" style="ellipse;whiteSpace=wrap;html=1;align=center;" vertex="1" parent="1">
          <mxGeometry x="690" y="70" width="100" height="40" as="geometry" />
        </mxCell>
      </root>
    </mxGraphModel>
  </diagram>
</mxfile>
